<svg preserveAspectRatio="none" width="100%" height="100%" overflow="visible" style="display: block;" viewBox="0 0 160 40" fill="none" xmlns="http://www.w3.org/2000/svg">
<g id="Group">
<path id="Vector" d="M160 0H0V40H160V0Z" fill="var(--fill-0, #016BE5)"/>
<path id="Vector_2" d="M17.9205 13.4163H12.3358V25.8681H17.9205V13.4163Z" fill="var(--fill-0, white)"/>
<path id="Vector_3" d="M28.1031 13.4163V15.5499C29.8413 13.9469 32.0729 13.1454 34.798 13.1454H34.9774C37.1642 13.1454 38.8127 13.6195 39.9005 14.5678C40.9883 15.516 41.5378 16.6675 41.5378 17.9996V25.8681H35.897V19.7156C35.897 18.7334 35.5942 17.9658 34.9999 17.4239C34.3943 16.882 33.4972 16.6111 32.2972 16.6111C31.0973 16.6111 30.0431 16.9159 29.2918 17.5368C28.5404 18.1577 28.1591 18.9705 28.1591 19.9865V25.8681H22.5744V13.4163H28.1143H28.1031Z" fill="var(--fill-0, white)"/>
<path id="Vector_4" d="M75.2705 26.2181C70.5156 26.2181 64.5608 25.3601 64.5608 19.8511C64.5608 14.342 70.0894 13.0663 74.7097 13.0663C81.8869 13.0663 84.9035 15.6854 84.9035 20.63H70.4371C70.8072 22.2556 72.4669 22.8427 75.2705 22.8427C77.7264 22.8427 79.5992 22.6959 84.0513 21.6234V25.2472C81.1916 25.9246 78.7245 26.2068 75.2705 26.2068V26.2181ZM74.6985 15.9676C72.1641 15.9676 70.9754 16.6675 70.5268 18.0787H78.8703C78.4665 16.6788 77.3115 15.9676 74.6985 15.9676Z" fill="var(--fill-0, white)"/>
<path id="Vector_5" d="M101.131 13.4953V17.5481C100.39 17.4014 99.6728 17.1869 97.7103 17.1869C95.0188 17.1869 93.8862 18.9705 93.9871 20.6752V25.8794H88.4024V13.4276H93.9423V15.6741C94.6936 14.0372 96.6673 13.1341 98.4392 13.1341C99.5158 13.1341 100.637 13.3373 101.131 13.4953Z" fill="var(--fill-0, white)"/>
<path id="Vector_6" d="M119.477 26.2181C114.341 26.2181 113.309 24.3103 113.309 21.9508V10.8198L118.827 9.79251V13.4276H125.454V16.6337H118.827V20.6752C118.827 22.4588 119.668 22.4476 121.238 22.4476C122.303 22.4476 125.454 21.7251 125.454 21.7251V25.4956C125.454 25.4956 122.427 26.2181 119.477 26.2181Z" fill="var(--fill-0, white)"/>
<path id="Vector_7" d="M140.549 18.2255V17.6384C140.549 16.7466 139.282 16.2724 136.321 16.2724C133.641 16.2724 129.065 17.2659 129.065 17.2659V13.8453C129.065 13.8453 133.047 13.0889 136.321 13.0889C141.67 13.0889 146.156 13.4728 146.156 17.6158V25.902H140.549V24.3103C139.327 25.5633 136.949 26.3084 134.56 26.3084C130.804 26.3084 128.314 25.0553 128.314 22.1202C128.314 20.0204 129.469 18.248 134.56 18.248H140.549V18.2255ZM135.267 20.7203C133.888 20.7203 133.349 21.2735 133.349 21.996C133.349 22.8765 134.179 23.3958 135.671 23.3958C137.846 23.3958 140.549 22.3234 140.549 20.7203H135.267Z" fill="var(--fill-0, white)"/>
<path id="Vector_8" d="M108.936 13.4276H103.351V25.8794H108.936V13.4276Z" fill="var(--fill-0, white)"/>
<path id="Vector_9" d="M49.5112 25.8681L42.6481 13.4163H49.0515L53.3914 21.9282L57.7313 13.4163H64.1347L57.2715 25.8681H49.5337H49.5112Z" fill="var(--fill-0, white)"/>
<path id="Vector_10" d="M13.7039 11.7681H12.3358V7.17344H18.2681C18.2681 9.71348 16.2271 11.7681 13.7039 11.7681Z" fill="var(--fill-0, white)"/>
<path id="Vector_11" d="M104.372 11.7681H103.34V7.17344H108.925C108.925 9.71348 106.884 11.7681 104.36 11.7681H104.372Z" fill="var(--fill-0, white)"/>
</g>
</svg>
